<?xml version="1.0" standalone="no"?>
<!DOCTYPE svg PUBLIC "-//W3C//DTD SVG 20010904//EN"
 "http://www.w3.org/TR/2001/REC-SVG-20010904/DTD/svg10.dtd">
<svg version="1.0" xmlns="http://www.w3.org/2000/svg"
 width="574.000000pt" height="574.000000pt" viewBox="0 0 574.000000 574.000000"
 preserveAspectRatio="xMidYMid meet">
<metadata>
Created by potrace 1.11, written by Peter Selinger 2001-2013
</metadata>
<g transform="translate(0.000000,574.000000) scale(0.100000,-0.100000)"
fill="#000000" stroke="none">
<path d="M2777 5536 c-71 -38 -650 -368 -957 -546 -459 -266 -529 -309 -547
-343 -17 -30 -18 -90 -18 -902 0 -676 3 -879 13 -912 16 -52 26 -60 327 -233
127 -72 232 -133 234 -135 1 -2 -8 -19 -22 -37 -88 -116 -264 -468 -306 -613
-44 -150 -51 -363 -17 -541 11 -60 57 -209 86 -279 147 -352 466 -651 828
-777 180 -62 239 -71 462 -72 219 0 264 6 435 60 433 138 773 480 914 920 46
147 56 213 56 394 0 154 -3 185 -24 255 -50 170 -123 328 -258 553 -40 68 -73
125 -73 127 0 3 45 31 110 68 375 212 435 251 455 293 19 40 29 475 29 1249 0
581 2 558 -61 616 -28 26 -198 128 -558 336 -708 409 -974 553 -1022 553 -12
0 -50 -15 -86 -34z m543 -618 c228 -128 510 -285 625 -349 l210 -117 0 -723 0
-723 -225 -128 c-124 -70 -228 -127 -231 -127 -4 -1 -58 59 -120 132 -269 313
-563 612 -635 647 -59 29 -122 26 -172 -7 -99 -67 -347 -326 -700 -732 l-29
-34 -89 48 c-97 53 -101 55 -254 142 l-105 60 -3 721 -2 721 77 42 c43 23 120
66 171 96 51 29 95 53 98 53 2 0 21 10 42 23 20 13 62 37 92 54 30 16 127 70
215 120 397 223 588 324 605 318 8 -4 202 -110 430 -237z m-367 -1895 c129
-134 353 -385 384 -430 8 -12 12 -27 9 -32 -6 -9 -105 -67 -375 -220 l-93 -54
-37 20 c-162 88 -461 259 -461 264 0 6 177 216 214 255 24 25 203 219 231 250
17 18 33 33 37 34 4 0 45 -39 91 -87z m-699 -805 c50 -28 107 -60 126 -71 19
-10 109 -61 200 -112 272 -152 273 -153 344 -129 24 8 175 89 335 179 160 90
300 166 311 170 17 5 31 -11 91 -102 144 -220 229 -425 245 -588 21 -233 -105
-552 -293 -738 -146 -144 -309 -242 -478 -287 -103 -27 -353 -35 -465 -15
-352 62 -665 333 -784 679 -75 215 -78 380 -14 571 43 125 253 495 281 495 5
0 50 -23 101 -52z"/>
</g>
</svg>
